<?xml version="1.0" encoding="UTF-8"?>
<svg id="Layer_1" data-name="Layer 1" xmlns="http://www.w3.org/2000/svg" viewBox="0 0 175.2 160.36">
  <defs>
    <style>
      .cls-1 {
        fill: #158383;
      }

      .cls-1, .cls-2, .cls-3, .cls-4, .cls-5, .cls-6 {
        stroke-width: 0px;
      }

      .cls-2 {
        fill: #203a67;
      }

      .cls-3 {
        fill: #228585;
      }

      .cls-4 {
        fill: #e36f2f;
      }

      .cls-5 {
        fill: #fbfcfc;
      }

      .cls-6 {
        fill: #74a497;
      }
    </style>
  </defs>
  <path class="cls-1" d="M175.2,111.65c-11.9,1.69-24.59,2.59-30.9-9.73-7.28-14.23-7.69-30.17.82-44.12,6.7-10.98,18.69-10.33,30.08-8.19v11.82c-2.44,2.3-5.51,1.63-8.39,1.73-6.78.24-8.67,1.62-9.92,8.31-1.11,5.97-1.08,12.05-.08,18.03,1.03,6.14,3.76,8.24,10,8.58,2.87.16,5.95-.55,8.39,1.75v11.82Z"/>
  <path class="cls-5" d="M175.2,99.84c-19.77,3.47-21.09-8.37-20.89-23.52.21-15.83,9.45-16.24,20.89-14.88v38.4Z"/>
  <path class="cls-4" d="M118.93,146.56v-79.25h13.71v93.04h-51.19v-13.79h37.49Z"/>
  <path class="cls-6" d="M64.89,45.23v89.28h-13.79V31.12h13.21c2.17,4.62,1.76,9.35.58,14.11Z"/>
  <path class="cls-1" d="M14.95,110.89v-50.24H0v-11.69h44.35v11.3h-14.76v50.64h-14.64Z"/>
  <path class="cls-2" d="M64.89,45.23c-.19-4.7-.39-9.4-.58-14.11,12.43,0,24.87,0,37.76,0V0h13.8v45.23h-50.98Z"/>
  <path class="cls-3" d="M78.61,87.85c-5.07-6.52-8.27-13.59-.99-19.32,6.33-4.99,15.1-5.42,20.63.93,6.94,7.96,1.27,14.38-6.24,19.56,2.36,2.09,4.39,3.88,6.77,6,1.08-1.97,1.98-3.61,2.96-5.38h9.36c-1.93,4.08-3.55,7.49-5.37,11.32,2.57,2.35,5.43,4.97,9.21,8.43-6,0-11.06,1.98-14.79-2.99-10.32,4.01-21.42,8.82-29.49-1.4-5.8-7.34,2.06-12.54,7.94-17.16Z"/>
  <path class="cls-5" d="M89.84,102.25c-3.06,1.06-6.03,1.44-9.44-.02-1.53-.65-1.95-2.63-.86-3.89l3.27-3.8c.87-1.01,2.44-1.13,3.48-.25,1.5,1.28,2.9,2.47,4.35,3.71s1.02,3.61-.8,4.24Z"/>
  <path class="cls-5" d="M91.46,75.91c.1,2.49-.94,4.09-2.47,5.38-1.63,1.38-4.08.94-5.17-.9-.83-1.41-1.13-3.02-.78-4.94.29-1.59,1.71-2.73,3.32-2.73h1.71c1.79,0,3.31,1.4,3.38,3.19Z"/>
</svg>