<?xml version="1.0" encoding="UTF-8"?>
<svg xmlns="http://www.w3.org/2000/svg" version="1.1" viewBox="0 0 175.2 160.4">
  <defs>
    <style>
      .cls-1 {
        fill: #158383;
      }

      .cls-1, .cls-2, .cls-3, .cls-4, .cls-5 {
        stroke-width: 0px;
      }

      .cls-2 {
        fill: #e36f2f;
      }

      .cls-3 {
        fill: #228585;
      }

      .cls-4 {
        fill: #203a67;
      }

      .cls-5 {
        fill: #74a497;
      }
    </style>
  </defs>
  <g id="Layer_1" data-name="Layer 1">
    <path class="cls-1" d="M14.9,110.9v-50.2H0v-11.7h44.3v11.3h-14.8v50.6h-14.6,0Z"/>
  </g>
  <g id="Layer_4" data-name="Layer 4">
    <path class="cls-1" d="M145.1,57.8c-8.5,14-8.1,29.9-.8,44.1,6.3,12.3,19,11.4,30.9,9.7v-11.8c-19.8,3.5-21.1-8.4-20.9-23.5.2-15.8,9.4-16.2,20.9-14.9,0,0,0,0,0,0v-11.8c-11.4-2.1-23.4-2.8-30.1,8.2Z"/>
  </g>
  <g id="Layer_3" data-name="Layer 3">
    <path class="cls-2" d="M118.9,146.6v-79.2h13.7v93h-51.2v-13.8h37.5,0Z"/>
    <path class="cls-5" d="M64.9,45.2v89.3h-13.8V31.1h13.2c2.2,4.6,1.8,9.4.6,14.1Z"/>
    <path class="cls-4" d="M64.9,45.2c-.2-4.7-.4-9.4-.6-14.1h37.8V0h13.8v45.2h-51Z"/>
  </g>
  <g id="Layer_2" data-name="Layer 2">
    <path class="cls-3" d="M105.7,101c1.8-3.8,3.4-7.2,5.4-11.3h-9.4c-1,1.8-1.9,3.4-3,5.4-2.4-2.1-4.4-3.9-6.8-6,7.5-5.2,13.2-11.6,6.2-19.6-5.5-6.3-14.3-5.9-20.6-.9-7.3,5.7-4.1,12.8,1,19.3h0c-5.9,4.6-13.7,9.8-7.9,17.2,8.1,10.2,19.2,5.4,29.5,1.4,3.7,5,8.8,3,14.8,3-3.8-3.5-6.6-6.1-9.2-8.4ZM83,75.4c.3-1.6,1.7-2.7,3.3-2.7h1.7c1.8,0,3.3,1.4,3.4,3.2h0c0,2.5-.9,4.1-2.5,5.4-1.6,1.4-4.1.9-5.2-.9-.8-1.4-1.1-3-.8-4.9ZM89.8,102.2h0c-3.1,1.1-6,1.5-9.4,0-1.5-.7-2-2.6-.9-3.9l3.3-3.8c.9-1,2.4-1.1,3.5-.2,1.5,1.3,2.9,2.5,4.4,3.7,1.4,1.2,1,3.6-.8,4.2Z"/>
  </g>
</svg>